<?xml version="1.0" encoding="iso-8859-1"?>
<!-- Generator: Adobe Illustrator 18.0.0, SVG Export Plug-In . SVG Version: 6.00 Build 0)  -->
<!DOCTYPE svg PUBLIC "-//W3C//DTD SVG 1.1//EN" "http://www.w3.org/Graphics/SVG/1.1/DTD/svg11.dtd">
<svg version="1.1" id="Capa_1" xmlns="http://www.w3.org/2000/svg" xmlns:xlink="http://www.w3.org/1999/xlink" x="0px" y="0px"
	 viewBox="0 0 59 59" style="enable-background:new 0 0 59 59;" xml:space="preserve">
<g>
	<path d="M58.953,39.601c-0.116-0.367-0.434-0.634-0.814-0.688l-7.777-1.089l-3.472-6.779c-0.342-0.669-1.438-0.669-1.779,0
		l-3.472,6.779l-7.777,1.089c-0.381,0.053-0.698,0.321-0.814,0.688s-0.012,0.768,0.269,1.032l5.605,5.266L37.6,53.325
		c-0.066,0.374,0.084,0.752,0.388,0.978c0.305,0.226,0.711,0.261,1.049,0.089L46,50.863l6.964,3.529
		c0.143,0.072,0.298,0.108,0.452,0.108c0.211,0,0.421-0.067,0.597-0.197c0.304-0.226,0.454-0.604,0.388-0.978l-1.321-7.426
		l5.605-5.266C58.965,40.369,59.069,39.967,58.953,39.601z M51.315,44.811c-0.246,0.231-0.359,0.572-0.3,0.904l1.064,5.986
		l-5.628-2.852c-0.143-0.072-0.297-0.108-0.452-0.108s-0.31,0.036-0.452,0.108l-5.628,2.852l1.064-5.986
		c0.06-0.333-0.054-0.673-0.3-0.904l-4.479-4.208l6.225-0.872c0.322-0.045,0.603-0.245,0.751-0.535L46,33.694l2.818,5.503
		c0.148,0.29,0.429,0.49,0.751,0.535l6.225,0.872L51.315,44.811z"/>
	<path d="M0,5.732v37.962c5.233-4.049,16.986-13.204,22.449-17.944L0,5.732z"/>
	<path d="M41.872,30.786l3.239-6.324c0.342-0.669,1.438-0.669,1.779,0l5.432,10.607L58,35.864V5.732L35.587,25.717L41.872,30.786z"
		/>
	<path d="M31.299,26.861L56.376,4.5H1.624l25.076,22.36C27.968,27.993,30.031,27.993,31.299,26.861z"/>
	<path d="M26.428,37.498c0.116-0.367,0.434-0.634,0.814-0.688l12.437-1.742l1.262-2.464l-6.866-5.539l-1.444,1.287
		c-1,0.893-2.315,1.34-3.63,1.34s-2.63-0.447-3.631-1.34l-1.414-1.261c-5.521,4.814-17.851,14.41-23.007,18.398
		C0.966,45.49,0.981,45.5,1,45.5h33.115l-7.419-6.97C26.416,38.266,26.312,37.865,26.428,37.498z"/>
</g>
<g>
</g>
<g>
</g>
<g>
</g>
<g>
</g>
<g>
</g>
<g>
</g>
<g>
</g>
<g>
</g>
<g>
</g>
<g>
</g>
<g>
</g>
<g>
</g>
<g>
</g>
<g>
</g>
<g>
</g>
</svg>
